HIERARCHY
ROOT Hips
{
	OFFSET	0.000000	0.000000	0.000000
	CHANNELS	6	Xposition	Yposition	Zposition	Zrotation	Xrotation	Yrotation
	JOINT LeftHip
	{
		OFFSET	15.500000	-8.200000	0.000000
		CHANNELS	3	Zrotation	Xrotation	Yrotation
		JOINT LeftKnee
		{
			OFFSET	0.000000	-41.000000	0.000000
			CHANNELS	3	Zrotation	Xrotation	Yrotation
			JOINT LeftAnkle
			{
				OFFSET	0.000000	-41.500000	0.000000
				CHANNELS	3	Zrotation	Xrotation	Yrotation
				End Site
				{
					OFFSET	0.000000	0.000000	22.875000
				}
			}
		}
	}
	JOINT RightHip
	{
		OFFSET	-15.500000	-8.200000	0.000000
		CHANNELS	3	Zrotation	Xrotation	Yrotation
		JOINT RightKnee
		{
			OFFSET	0.000000	-41.000000	0.000000
			CHANNELS	3	Zrotation	Xrotation	Yrotation
			JOINT RightAnkle
			{
				OFFSET	0.000000	-41.500000	0.000000
				CHANNELS	3	Zrotation	Xrotation	Yrotation
				End Site
				{
					OFFSET	0.000000	0.000000	22.875000
				}
			}
		}
	}
	JOINT Chest
	{
		OFFSET	0.000000	16.666667	0.000000
		CHANNELS	3	Zrotation	Xrotation	Yrotation
		JOINT LeftCollar
		{
			OFFSET	4.625000	33.333333	1.541667
			CHANNELS	3	Zrotation	Xrotation	Yrotation
			JOINT LeftShoulder
			{
				OFFSET	13.875000	0.000000	0.000000
				CHANNELS	3	Zrotation	Xrotation	Yrotation
				JOINT LeftElbow
				{
					OFFSET	0.000000	-28.000000	0.000000
					CHANNELS	3	Zrotation	Xrotation	Yrotation
					JOINT LeftWrist
					{
						OFFSET	0.000000	-25.000000	0.000000
						CHANNELS	3	Zrotation	Xrotation	Yrotation
						End Site
						{
							OFFSET	0.000000	-7.500000	0.000000
						}
					}
				}
			}
		}
		JOINT RightCollar
		{
			OFFSET	-4.625000	33.333333	1.541667
			CHANNELS	3	Zrotation	Xrotation	Yrotation
			JOINT RightShoulder
			{
				OFFSET	-13.875000	0.000000	0.000000
				CHANNELS	3	Zrotation	Xrotation	Yrotation
				JOINT RightElbow
				{
					OFFSET	0.000000	-28.000000	0.000000
					CHANNELS	3	Zrotation	Xrotation	Yrotation
					JOINT RightWrist
					{
						OFFSET	0.000000	-25.000000	0.000000
						CHANNELS	3	Zrotation	Xrotation	Yrotation
						End Site
						{
							OFFSET	0.000000	-7.500000	0.000000
						}
					}
				}
			}
		}
		JOINT Neck
		{
			OFFSET	0.000000	33.333333	0.000000
			CHANNELS	3	Zrotation	Xrotation	Yrotation
			JOINT Head
			{
				OFFSET	0.000000	12.000000	0.000000
				CHANNELS	3	Zrotation	Xrotation	Yrotation
				End Site
				{
					OFFSET	0.000000	15.000000	0.000000
				}
			}
		}
	}
}
MOTION
Frames:	15
Frame Time:	0.012000
3.12	103.49	-84.63	-1.42	4.37	5.02	0.75	-1.42	1.80	0.00	15.11	0.00	0.11	20.63	-0.32	-0.86	-1.18	0.96	0.00	0.00	0.00	-0.32	30.11	0.17	-2.51	1.24	0.82	0.00	0.00	0.00	24.87	-22.38	37.21	-0.18	-1.88	2.85	-2.07	2.76	0.00	0.00	0.00	0.00	-81.34	-55.81	162.56	52.16	71.77	33.31	-12.57	-8.01	0.00	0.00	0.00	0.00	7.45	-5.54	25.81
3.11	103.49	-84.63	-1.43	4.37	4.99	0.76	-1.40	1.82	0.00	15.10	0.00	0.10	20.61	-0.31	-0.85	-1.19	0.97	0.00	0.00	0.00	-0.36	30.10	0.22	-2.52	1.24	0.82	0.00	0.00	0.00	24.85	-22.38	37.23	-0.18	-1.91	2.81	-2.06	2.76	0.00	0.00	0.00	0.00	-81.49	-55.72	162.30	51.58	72.03	32.68	-12.25	-7.97	0.00	0.00	0.00	0.00	7.46	-5.59	25.80
3.13	103.49	-84.62	-1.43	4.37	4.99	0.76	-1.40	1.83	0.00	15.13	0.00	0.10	20.59	-0.32	-0.85	-1.18	0.95	0.00	0.00	0.00	-0.39	30.06	0.31	-2.52	1.22	0.82	0.00	0.00	0.00	24.86	-22.37	37.21	-0.18	-1.92	2.79	-2.06	2.76	0.00	0.00	0.00	0.00	-81.71	-55.63	161.89	51.27	72.38	31.08	-11.80	-7.90	0.00	0.00	0.00	0.00	7.46	-5.58	25.80
3.13	103.49	-84.60	-1.43	4.37	4.99	0.76	-1.39	1.84	0.00	15.13	0.00	0.10	20.59	-0.32	-0.85	-1.18	0.94	0.00	0.00	0.00	-0.39	30.08	0.32	-2.52	1.21	0.82	0.00	0.00	0.00	24.84	-22.39	37.23	-0.17	-1.92	2.80	-2.06	2.76	0.00	0.00	0.00	0.00	-81.96	-55.55	161.39	51.47	72.83	28.42	-11.27	-7.83	0.00	0.00	0.00	0.00	7.46	-5.57	25.80
3.14	103.49	-84.57	-1.43	4.37	4.97	0.76	-1.38	1.84	0.00	15.15	0.00	0.10	20.59	-0.33	-0.85	-1.18	0.93	0.00	0.00	0.00	-0.38	30.04	0.34	-2.52	1.21	0.82	0.00	0.00	0.00	24.84	-22.38	37.24	-0.17	-1.91	2.80	-2.06	2.76	0.00	0.00	0.00	0.00	-82.23	-55.46	160.81	52.50	73.44	24.58	-10.75	-7.70	0.00	0.00	0.00	0.00	7.43	-5.64	25.85
3.15	103.49	-84.55	-1.43	4.37	4.97	0.75	-1.36	1.86	0.00	15.15	0.00	0.09	20.60	-0.33	-0.85	-1.18	0.93	0.00	0.00	0.00	-0.40	30.02	0.35	-2.53	1.20	0.81	0.00	0.00	0.00	24.82	-22.38	37.25	-0.17	-1.94	2.81	-2.05	2.76	0.00	0.00	0.00	0.00	-82.49	-55.39	160.13	54.63	74.20	19.36	-10.29	-7.51	0.00	0.00	0.00	0.00	7.44	-5.63	25.85
3.15	103.50	-84.51	-1.43	4.37	4.97	0.76	-1.37	1.87	0.00	15.18	0.00	0.09	20.58	-0.34	-0.85	-1.19	0.93	0.00	0.00	0.00	-0.42	30.03	0.32	-2.53	1.20	0.80	0.00	0.00	0.00	24.81	-22.35	37.25	-0.17	-1.94	2.82	-2.05	2.76	0.00	0.00	0.00	0.00	-82.73	-55.34	159.37	58.22	75.07	12.47	-9.85	-7.25	0.00	0.00	0.00	0.00	7.44	-5.63	25.86
3.15	103.50	-84.50	-1.44	4.37	5.00	0.75	-1.36	1.85	0.00	15.19	0.00	0.10	20.59	-0.34	-0.86	-1.19	0.90	0.00	0.00	0.00	-0.44	30.02	0.35	-2.54	1.20	0.80	0.00	0.00	0.00	24.78	-22.34	37.24	-0.17	-1.96	2.86	-2.04	2.75	0.00	0.00	0.00	0.00	-82.88	-55.37	158.60	63.22	75.84	3.92	-9.43	-6.94	0.00	0.00	0.00	0.00	7.41	-5.71	25.90
3.16	103.50	-84.47	-1.44	4.37	5.00	0.75	-1.36	1.86	0.00	15.20	0.00	0.10	20.59	-0.35	-0.86	-1.20	0.89	0.00	0.00	0.00	-0.47	30.06	0.33	-2.55	1.20	0.79	0.00	0.00	0.00	24.73	-22.32	37.21	-0.15	-1.97	2.92	-2.05	2.74	0.00	0.00	0.00	0.00	-82.76	-55.52	157.96	69.28	76.31	-5.82	-8.96	-6.63	0.00	0.00	0.00	0.00	7.42	-5.71	25.91
3.16	103.51	-84.47	-1.44	4.37	5.00	0.75	-1.37	1.85	0.00	15.21	0.00	0.12	20.60	-0.36	-0.86	-1.22	0.87	0.00	0.00	0.00	-0.49	30.05	0.35	-2.51	1.24	0.78	0.00	0.00	0.00	24.79	-22.27	37.16	-0.22	-1.94	2.94	-2.05	2.74	0.00	0.00	0.00	0.00	-82.40	-55.73	157.46	75.53	76.49	-15.71	-8.46	-6.35	0.00	0.00	0.00	0.00	7.38	-5.75	25.92
3.15	103.51	-84.47	-1.41	4.37	5.03	0.75	-1.37	1.84	0.00	15.22	0.00	0.13	20.63	-0.36	-1.19	-0.64	3.58	0.55	-1.14	-2.73	-0.65	30.55	0.71	-2.53	1.25	0.76	0.00	0.00	0.00	24.76	-22.25	37.12	-0.20	-1.95	2.97	-2.05	2.74	0.00	0.00	0.00	0.00	-81.91	-56.10	157.10	81.47	76.28	-25.05	-8.00	-6.11	0.00	0.00	0.00	0.00	7.31	-5.78	25.93
3.09	103.51	-84.44	-1.41	4.37	5.03	0.76	-1.37	1.83	0.00	15.22	0.00	0.12	20.64	-0.36	-1.15	-0.70	3.26	0.48	-1.01	-2.42	-0.63	30.49	0.68	-2.54	1.27	0.75	0.00	0.00	0.00	24.72	-22.24	37.12	-0.19	-1.95	2.99	-2.04	2.75	0.00	0.00	0.00	0.00	-81.29	-56.51	156.89	86.61	75.91	-33.08	-7.62	-5.90	0.00	0.00	0.00	0.00	7.33	-5.79	25.94
3.09	103.51	-84.44	-1.41	4.37	5.03	0.76	-1.38	1.83	0.00	15.22	0.00	0.12	20.63	-0.35	-1.12	-0.75	2.95	0.41	-0.89	-2.12	-0.60	30.45	0.66	-2.54	1.28	0.74	0.00	0.00	0.00	24.73	-22.22	37.07	-0.20	-1.93	3.04	-2.04	2.76	0.00	0.00	0.00	0.00	-80.63	-56.94	156.75	90.80	75.50	-39.48	-7.32	-5.73	0.00	0.00	0.00	0.00	7.32	-5.80	25.95
3.09	103.52	-84.46	-1.39	4.36	5.04	0.76	-1.38	1.81	0.00	15.21	0.00	0.13	20.62	-0.34	-1.09	-0.80	2.64	0.35	-0.77	-1.82	-0.59	30.40	0.61	-2.55	1.29	0.73	0.00	0.00	0.00	24.71	-22.23	37.04	-0.18	-1.89	3.08	-2.04	2.77	0.00	0.00	0.00	0.00	-79.99	-57.37	156.64	93.82	75.11	-43.95	-7.04	-5.62	0.00	0.00	0.00	0.00	7.31	-5.74	25.94
3.05	103.52	-84.48	-1.39	4.36	5.04	0.76	-1.38	1.81	0.00	15.20	0.00	0.12	20.64	-0.33	-1.05	-0.85	2.33	0.29	-0.64	-1.52	-0.55	30.31	0.56	-2.55	1.29	0.73	0.00	0.00	0.00	24.69	-22.21	37.00	-0.18	-1.91	3.09	-2.04	2.76	0.00	0.00	0.00	0.00	-79.35	-57.76	156.63	95.58	74.84	-46.39	-6.78	-5.61	0.00	0.00	0.00	0.00	7.32	-5.74	25.94
